<mxfile host="app.diagrams.net" modified="2021-12-21T00:48:29.259Z" agent="5.0 (Windows NT 6.1; Win64; x64) AppleWebKit/537.36 (KHTML, like Gecko) Chrome/96.0.4664.110 Safari/537.36" etag="xCvtwbr9hHvZWET6jgXM" version="16.0.0" type="github">
  <diagram id="76-Z5J_hO1XvjAIdn8TQ" name="Page-1">
    <mxGraphModel dx="1102" dy="614" grid="1" gridSize="10" guides="1" tooltips="1" connect="1" arrows="1" fold="1" page="1" pageScale="1" pageWidth="850" pageHeight="1100" background="#F1FAEE" math="0" shadow="0">
      <root>
        <mxCell id="0" />
        <mxCell id="1" parent="0" />
        <mxCell id="kFZeInZ5YXrBo36wIZL7-1" value="SystemUser" style="swimlane;fontStyle=0;childLayout=stackLayout;horizontal=1;startSize=30;horizontalStack=0;resizeParent=1;resizeParentMax=0;resizeLast=0;collapsible=1;marginBottom=0;rounded=1;fontColor=#1D3557;strokeColor=#457B9D;fillColor=#A8DADC;" vertex="1" parent="1">
          <mxGeometry x="140" y="40" width="150" height="186" as="geometry" />
        </mxCell>
        <mxCell id="kFZeInZ5YXrBo36wIZL7-73" value="Name : string" style="text;align=left;verticalAlign=top;spacingLeft=4;spacingRight=4;overflow=hidden;rotatable=0;points=[[0,0.5],[1,0.5]];portConstraint=eastwest;fillColor=#f8cecc;strokeColor=#b85450;" vertex="1" parent="kFZeInZ5YXrBo36wIZL7-1">
          <mxGeometry y="30" width="150" height="26" as="geometry" />
        </mxCell>
        <mxCell id="kFZeInZ5YXrBo36wIZL7-75" value="Email Address : string" style="text;align=left;verticalAlign=top;spacingLeft=4;spacingRight=4;overflow=hidden;rotatable=0;points=[[0,0.5],[1,0.5]];portConstraint=eastwest;rounded=0;shadow=0;html=0;fillColor=#f8cecc;strokeColor=#b85450;" vertex="1" parent="kFZeInZ5YXrBo36wIZL7-1">
          <mxGeometry y="56" width="150" height="26" as="geometry" />
        </mxCell>
        <mxCell id="kFZeInZ5YXrBo36wIZL7-78" value="Created_Date: date" style="text;align=left;verticalAlign=top;spacingLeft=4;spacingRight=4;overflow=hidden;rotatable=0;points=[[0,0.5],[1,0.5]];portConstraint=eastwest;rounded=0;shadow=0;html=0;fillColor=#f8cecc;strokeColor=#b85450;" vertex="1" parent="kFZeInZ5YXrBo36wIZL7-1">
          <mxGeometry y="82" width="150" height="26" as="geometry" />
        </mxCell>
        <mxCell id="kFZeInZ5YXrBo36wIZL7-77" value="Profile_Image : img" style="text;align=left;verticalAlign=top;spacingLeft=4;spacingRight=4;overflow=hidden;rotatable=0;points=[[0,0.5],[1,0.5]];portConstraint=eastwest;rounded=0;shadow=0;html=0;fillColor=#f8cecc;strokeColor=#b85450;" vertex="1" parent="kFZeInZ5YXrBo36wIZL7-1">
          <mxGeometry y="108" width="150" height="26" as="geometry" />
        </mxCell>
        <mxCell id="kFZeInZ5YXrBo36wIZL7-76" value="Password : string" style="text;align=left;verticalAlign=top;spacingLeft=4;spacingRight=4;overflow=hidden;rotatable=0;points=[[0,0.5],[1,0.5]];portConstraint=eastwest;rounded=0;shadow=0;html=0;fillColor=#f8cecc;strokeColor=#b85450;" vertex="1" parent="kFZeInZ5YXrBo36wIZL7-1">
          <mxGeometry y="134" width="150" height="26" as="geometry" />
        </mxCell>
        <mxCell id="kFZeInZ5YXrBo36wIZL7-74" value="Phone Number : number" style="text;align=left;verticalAlign=top;spacingLeft=4;spacingRight=4;overflow=hidden;rotatable=0;points=[[0,0.5],[1,0.5]];portConstraint=eastwest;rounded=0;shadow=0;html=0;fillColor=#f8cecc;strokeColor=#b85450;" vertex="1" parent="kFZeInZ5YXrBo36wIZL7-1">
          <mxGeometry y="160" width="150" height="26" as="geometry" />
        </mxCell>
        <mxCell id="kFZeInZ5YXrBo36wIZL7-37" value="Admin" style="swimlane;fontStyle=0;childLayout=stackLayout;horizontal=1;startSize=30;horizontalStack=0;resizeParent=1;resizeParentMax=0;resizeLast=0;collapsible=1;marginBottom=0;rounded=1;fontColor=#1D3557;strokeColor=#457B9D;fillColor=#A8DADC;" vertex="1" parent="1">
          <mxGeometry x="360" y="80" width="140" height="120" as="geometry" />
        </mxCell>
        <mxCell id="kFZeInZ5YXrBo36wIZL7-38" value="Item 1" style="text;strokeColor=#b85450;fillColor=#f8cecc;align=left;verticalAlign=middle;spacingLeft=4;spacingRight=4;overflow=hidden;points=[[0,0.5],[1,0.5]];portConstraint=eastwest;rotatable=0;rounded=1;" vertex="1" parent="kFZeInZ5YXrBo36wIZL7-37">
          <mxGeometry y="30" width="140" height="30" as="geometry" />
        </mxCell>
        <mxCell id="kFZeInZ5YXrBo36wIZL7-39" value="Item 2" style="text;strokeColor=#b85450;fillColor=#f8cecc;align=left;verticalAlign=middle;spacingLeft=4;spacingRight=4;overflow=hidden;points=[[0,0.5],[1,0.5]];portConstraint=eastwest;rotatable=0;rounded=1;" vertex="1" parent="kFZeInZ5YXrBo36wIZL7-37">
          <mxGeometry y="60" width="140" height="30" as="geometry" />
        </mxCell>
        <mxCell id="kFZeInZ5YXrBo36wIZL7-40" value="Item 3" style="text;strokeColor=#b85450;fillColor=#f8cecc;align=left;verticalAlign=middle;spacingLeft=4;spacingRight=4;overflow=hidden;points=[[0,0.5],[1,0.5]];portConstraint=eastwest;rotatable=0;rounded=1;" vertex="1" parent="kFZeInZ5YXrBo36wIZL7-37">
          <mxGeometry y="90" width="140" height="30" as="geometry" />
        </mxCell>
        <mxCell id="kFZeInZ5YXrBo36wIZL7-41" value="Analyst" style="swimlane;fontStyle=0;childLayout=stackLayout;horizontal=1;startSize=30;horizontalStack=0;resizeParent=1;resizeParentMax=0;resizeLast=0;collapsible=1;marginBottom=0;rounded=1;fontColor=#1D3557;strokeColor=#457B9D;fillColor=#A8DADC;" vertex="1" parent="1">
          <mxGeometry x="550" y="80" width="140" height="120" as="geometry" />
        </mxCell>
        <mxCell id="kFZeInZ5YXrBo36wIZL7-42" value="Item 1" style="text;strokeColor=#b85450;fillColor=#f8cecc;align=left;verticalAlign=middle;spacingLeft=4;spacingRight=4;overflow=hidden;points=[[0,0.5],[1,0.5]];portConstraint=eastwest;rotatable=0;rounded=1;" vertex="1" parent="kFZeInZ5YXrBo36wIZL7-41">
          <mxGeometry y="30" width="140" height="30" as="geometry" />
        </mxCell>
        <mxCell id="kFZeInZ5YXrBo36wIZL7-43" value="Item 2" style="text;strokeColor=#b85450;fillColor=#f8cecc;align=left;verticalAlign=middle;spacingLeft=4;spacingRight=4;overflow=hidden;points=[[0,0.5],[1,0.5]];portConstraint=eastwest;rotatable=0;rounded=1;" vertex="1" parent="kFZeInZ5YXrBo36wIZL7-41">
          <mxGeometry y="60" width="140" height="30" as="geometry" />
        </mxCell>
        <mxCell id="kFZeInZ5YXrBo36wIZL7-44" value="Item 3" style="text;strokeColor=#b85450;fillColor=#f8cecc;align=left;verticalAlign=middle;spacingLeft=4;spacingRight=4;overflow=hidden;points=[[0,0.5],[1,0.5]];portConstraint=eastwest;rotatable=0;rounded=1;" vertex="1" parent="kFZeInZ5YXrBo36wIZL7-41">
          <mxGeometry y="90" width="140" height="30" as="geometry" />
        </mxCell>
        <mxCell id="kFZeInZ5YXrBo36wIZL7-45" value="Client" style="swimlane;fontStyle=0;childLayout=stackLayout;horizontal=1;startSize=30;horizontalStack=0;resizeParent=1;resizeParentMax=0;resizeLast=0;collapsible=1;marginBottom=0;rounded=1;fontColor=#1D3557;strokeColor=#457B9D;fillColor=#A8DADC;" vertex="1" parent="1">
          <mxGeometry x="160" y="280" width="140" height="120" as="geometry" />
        </mxCell>
        <mxCell id="kFZeInZ5YXrBo36wIZL7-46" value="Item 1" style="text;strokeColor=#b85450;fillColor=#f8cecc;align=left;verticalAlign=middle;spacingLeft=4;spacingRight=4;overflow=hidden;points=[[0,0.5],[1,0.5]];portConstraint=eastwest;rotatable=0;rounded=1;" vertex="1" parent="kFZeInZ5YXrBo36wIZL7-45">
          <mxGeometry y="30" width="140" height="30" as="geometry" />
        </mxCell>
        <mxCell id="kFZeInZ5YXrBo36wIZL7-47" value="Item 2" style="text;strokeColor=#b85450;fillColor=#f8cecc;align=left;verticalAlign=middle;spacingLeft=4;spacingRight=4;overflow=hidden;points=[[0,0.5],[1,0.5]];portConstraint=eastwest;rotatable=0;rounded=1;" vertex="1" parent="kFZeInZ5YXrBo36wIZL7-45">
          <mxGeometry y="60" width="140" height="30" as="geometry" />
        </mxCell>
        <mxCell id="kFZeInZ5YXrBo36wIZL7-48" value="Item 3" style="text;strokeColor=#b85450;fillColor=#f8cecc;align=left;verticalAlign=middle;spacingLeft=4;spacingRight=4;overflow=hidden;points=[[0,0.5],[1,0.5]];portConstraint=eastwest;rotatable=0;rounded=1;" vertex="1" parent="kFZeInZ5YXrBo36wIZL7-45">
          <mxGeometry y="90" width="140" height="30" as="geometry" />
        </mxCell>
        <mxCell id="kFZeInZ5YXrBo36wIZL7-49" value="Questionare" style="swimlane;fontStyle=0;childLayout=stackLayout;horizontal=1;startSize=30;horizontalStack=0;resizeParent=1;resizeParentMax=0;resizeLast=0;collapsible=1;marginBottom=0;rounded=1;fontColor=#1D3557;strokeColor=#457B9D;fillColor=#A8DADC;" vertex="1" parent="1">
          <mxGeometry x="380" y="280" width="140" height="120" as="geometry" />
        </mxCell>
        <mxCell id="kFZeInZ5YXrBo36wIZL7-50" value="Item 1" style="text;strokeColor=#b85450;fillColor=#f8cecc;align=left;verticalAlign=middle;spacingLeft=4;spacingRight=4;overflow=hidden;points=[[0,0.5],[1,0.5]];portConstraint=eastwest;rotatable=0;rounded=1;" vertex="1" parent="kFZeInZ5YXrBo36wIZL7-49">
          <mxGeometry y="30" width="140" height="30" as="geometry" />
        </mxCell>
        <mxCell id="kFZeInZ5YXrBo36wIZL7-51" value="Item 2" style="text;strokeColor=#b85450;fillColor=#f8cecc;align=left;verticalAlign=middle;spacingLeft=4;spacingRight=4;overflow=hidden;points=[[0,0.5],[1,0.5]];portConstraint=eastwest;rotatable=0;rounded=1;" vertex="1" parent="kFZeInZ5YXrBo36wIZL7-49">
          <mxGeometry y="60" width="140" height="30" as="geometry" />
        </mxCell>
        <mxCell id="kFZeInZ5YXrBo36wIZL7-52" value="Item 3" style="text;strokeColor=#b85450;fillColor=#f8cecc;align=left;verticalAlign=middle;spacingLeft=4;spacingRight=4;overflow=hidden;points=[[0,0.5],[1,0.5]];portConstraint=eastwest;rotatable=0;rounded=1;" vertex="1" parent="kFZeInZ5YXrBo36wIZL7-49">
          <mxGeometry y="90" width="140" height="30" as="geometry" />
        </mxCell>
        <mxCell id="kFZeInZ5YXrBo36wIZL7-53" value="Report" style="swimlane;fontStyle=0;childLayout=stackLayout;horizontal=1;startSize=30;horizontalStack=0;resizeParent=1;resizeParentMax=0;resizeLast=0;collapsible=1;marginBottom=0;rounded=1;fontColor=#1D3557;strokeColor=#457B9D;fillColor=#A8DADC;" vertex="1" parent="1">
          <mxGeometry x="600" y="280" width="140" height="210" as="geometry" />
        </mxCell>
        <mxCell id="kFZeInZ5YXrBo36wIZL7-55" value="report_id: unique" style="text;strokeColor=#b85450;fillColor=#f8cecc;align=left;verticalAlign=middle;spacingLeft=4;spacingRight=4;overflow=hidden;points=[[0,0.5],[1,0.5]];portConstraint=eastwest;rotatable=0;rounded=1;" vertex="1" parent="kFZeInZ5YXrBo36wIZL7-53">
          <mxGeometry y="30" width="140" height="30" as="geometry" />
        </mxCell>
        <mxCell id="kFZeInZ5YXrBo36wIZL7-58" value="" style="shape=table;startSize=0;container=1;collapsible=1;childLayout=tableLayout;fixedRows=1;rowLines=0;fontStyle=0;align=center;resizeLast=1;strokeColor=#b85450;fillColor=#f8cecc;rounded=1;sketch=0;fontColor=#000000;" vertex="1" parent="kFZeInZ5YXrBo36wIZL7-53">
          <mxGeometry y="60" width="140" height="30" as="geometry" />
        </mxCell>
        <mxCell id="kFZeInZ5YXrBo36wIZL7-59" value="" style="shape=partialRectangle;collapsible=0;dropTarget=0;pointerEvents=0;fillColor=none;top=0;left=0;bottom=0;right=0;points=[[0,0.5],[1,0.5]];portConstraint=eastwest;rounded=0;sketch=0;fontColor=#1D3557;strokeColor=#457B9D;" vertex="1" parent="kFZeInZ5YXrBo36wIZL7-58">
          <mxGeometry width="140" height="30" as="geometry" />
        </mxCell>
        <mxCell id="kFZeInZ5YXrBo36wIZL7-60" value="FK" style="shape=partialRectangle;connectable=0;fillColor=none;top=0;left=0;bottom=0;right=0;fontStyle=0;overflow=hidden;rounded=0;sketch=0;fontColor=#000000;strokeColor=#457B9D;" vertex="1" parent="kFZeInZ5YXrBo36wIZL7-59">
          <mxGeometry width="30" height="30" as="geometry">
            <mxRectangle width="30" height="30" as="alternateBounds" />
          </mxGeometry>
        </mxCell>
        <mxCell id="kFZeInZ5YXrBo36wIZL7-61" value="Questionare" style="shape=partialRectangle;connectable=0;fillColor=none;top=0;left=0;bottom=0;right=0;align=left;spacingLeft=6;fontStyle=0;overflow=hidden;rounded=0;sketch=0;fontColor=#1D3557;strokeColor=#457B9D;" vertex="1" parent="kFZeInZ5YXrBo36wIZL7-59">
          <mxGeometry x="30" width="110" height="30" as="geometry">
            <mxRectangle width="110" height="30" as="alternateBounds" />
          </mxGeometry>
        </mxCell>
        <mxCell id="kFZeInZ5YXrBo36wIZL7-54" value="Analyst: varchar" style="text;strokeColor=#b85450;fillColor=#f8cecc;align=left;verticalAlign=middle;spacingLeft=4;spacingRight=4;overflow=hidden;points=[[0,0.5],[1,0.5]];portConstraint=eastwest;rotatable=0;rounded=1;" vertex="1" parent="kFZeInZ5YXrBo36wIZL7-53">
          <mxGeometry y="90" width="140" height="30" as="geometry" />
        </mxCell>
        <mxCell id="kFZeInZ5YXrBo36wIZL7-63" value="" style="shape=table;startSize=0;container=1;collapsible=1;childLayout=tableLayout;fixedRows=1;rowLines=0;fontStyle=0;align=center;resizeLast=1;strokeColor=#b85450;fillColor=#f8cecc;rounded=1;sketch=0;fontColor=#000000;" vertex="1" parent="kFZeInZ5YXrBo36wIZL7-53">
          <mxGeometry y="120" width="140" height="30" as="geometry" />
        </mxCell>
        <mxCell id="kFZeInZ5YXrBo36wIZL7-64" value="" style="shape=partialRectangle;collapsible=0;dropTarget=0;pointerEvents=0;fillColor=none;top=0;left=0;bottom=0;right=0;points=[[0,0.5],[1,0.5]];portConstraint=eastwest;rounded=0;sketch=0;fontColor=#1D3557;strokeColor=#457B9D;" vertex="1" parent="kFZeInZ5YXrBo36wIZL7-63">
          <mxGeometry width="140" height="30" as="geometry" />
        </mxCell>
        <mxCell id="kFZeInZ5YXrBo36wIZL7-65" value="FK" style="shape=partialRectangle;connectable=0;fillColor=none;top=0;left=0;bottom=0;right=0;fontStyle=0;overflow=hidden;rounded=0;sketch=0;fontColor=#000000;strokeColor=#457B9D;" vertex="1" parent="kFZeInZ5YXrBo36wIZL7-64">
          <mxGeometry width="30" height="30" as="geometry">
            <mxRectangle width="30" height="30" as="alternateBounds" />
          </mxGeometry>
        </mxCell>
        <mxCell id="kFZeInZ5YXrBo36wIZL7-66" value="Analyst" style="shape=partialRectangle;connectable=0;fillColor=none;top=0;left=0;bottom=0;right=0;align=left;spacingLeft=6;fontStyle=0;overflow=hidden;rounded=0;sketch=0;fontColor=#1D3557;strokeColor=#457B9D;" vertex="1" parent="kFZeInZ5YXrBo36wIZL7-64">
          <mxGeometry x="30" width="110" height="30" as="geometry">
            <mxRectangle width="110" height="30" as="alternateBounds" />
          </mxGeometry>
        </mxCell>
        <mxCell id="kFZeInZ5YXrBo36wIZL7-67" value="" style="shape=table;startSize=0;container=1;collapsible=1;childLayout=tableLayout;fixedRows=1;rowLines=0;fontStyle=0;align=center;resizeLast=1;strokeColor=#b85450;fillColor=#f8cecc;rounded=1;sketch=0;fontColor=#000000;" vertex="1" parent="kFZeInZ5YXrBo36wIZL7-53">
          <mxGeometry y="150" width="140" height="30" as="geometry" />
        </mxCell>
        <mxCell id="kFZeInZ5YXrBo36wIZL7-68" value="" style="shape=partialRectangle;collapsible=0;dropTarget=0;pointerEvents=0;fillColor=none;top=0;left=0;bottom=0;right=0;points=[[0,0.5],[1,0.5]];portConstraint=eastwest;rounded=0;sketch=0;fontColor=#1D3557;strokeColor=#457B9D;" vertex="1" parent="kFZeInZ5YXrBo36wIZL7-67">
          <mxGeometry width="140" height="30" as="geometry" />
        </mxCell>
        <mxCell id="kFZeInZ5YXrBo36wIZL7-69" value="FK" style="shape=partialRectangle;connectable=0;fillColor=none;top=0;left=0;bottom=0;right=0;fontStyle=0;overflow=hidden;rounded=0;sketch=0;fontColor=#000000;strokeColor=#457B9D;" vertex="1" parent="kFZeInZ5YXrBo36wIZL7-68">
          <mxGeometry width="30" height="30" as="geometry">
            <mxRectangle width="30" height="30" as="alternateBounds" />
          </mxGeometry>
        </mxCell>
        <mxCell id="kFZeInZ5YXrBo36wIZL7-70" value="Client" style="shape=partialRectangle;connectable=0;fillColor=none;top=0;left=0;bottom=0;right=0;align=left;spacingLeft=6;fontStyle=0;overflow=hidden;rounded=0;sketch=0;fontColor=#1D3557;strokeColor=#457B9D;" vertex="1" parent="kFZeInZ5YXrBo36wIZL7-68">
          <mxGeometry x="30" width="110" height="30" as="geometry">
            <mxRectangle width="110" height="30" as="alternateBounds" />
          </mxGeometry>
        </mxCell>
        <mxCell id="kFZeInZ5YXrBo36wIZL7-57" value="created_at: DataTime" style="text;strokeColor=#b85450;fillColor=#f8cecc;align=left;verticalAlign=middle;spacingLeft=4;spacingRight=4;overflow=hidden;points=[[0,0.5],[1,0.5]];portConstraint=eastwest;rotatable=0;rounded=1;" vertex="1" parent="kFZeInZ5YXrBo36wIZL7-53">
          <mxGeometry y="180" width="140" height="30" as="geometry" />
        </mxCell>
        <mxCell id="kFZeInZ5YXrBo36wIZL7-62" style="edgeStyle=orthogonalEdgeStyle;curved=0;rounded=1;sketch=0;orthogonalLoop=1;jettySize=auto;html=1;exitX=1;exitY=0.5;exitDx=0;exitDy=0;entryX=0;entryY=0.5;entryDx=0;entryDy=0;fontColor=#1D3557;strokeColor=#457B9D;fillColor=#A8DADC;" edge="1" parent="1" source="kFZeInZ5YXrBo36wIZL7-50" target="kFZeInZ5YXrBo36wIZL7-59">
          <mxGeometry relative="1" as="geometry" />
        </mxCell>
        <mxCell id="kFZeInZ5YXrBo36wIZL7-71" style="edgeStyle=orthogonalEdgeStyle;curved=0;rounded=1;sketch=0;orthogonalLoop=1;jettySize=auto;html=1;exitX=1;exitY=0.5;exitDx=0;exitDy=0;entryX=1;entryY=0.5;entryDx=0;entryDy=0;fontColor=#000000;strokeColor=#457B9D;fillColor=#A8DADC;" edge="1" parent="1" source="kFZeInZ5YXrBo36wIZL7-64" target="kFZeInZ5YXrBo36wIZL7-42">
          <mxGeometry relative="1" as="geometry">
            <Array as="points">
              <mxPoint x="790" y="415" />
              <mxPoint x="790" y="125" />
            </Array>
          </mxGeometry>
        </mxCell>
        <mxCell id="kFZeInZ5YXrBo36wIZL7-72" style="edgeStyle=orthogonalEdgeStyle;curved=0;rounded=1;sketch=0;orthogonalLoop=1;jettySize=auto;html=1;exitX=0;exitY=0.5;exitDx=0;exitDy=0;entryX=0;entryY=0.5;entryDx=0;entryDy=0;fontColor=#000000;strokeColor=#457B9D;fillColor=#A8DADC;" edge="1" parent="1" source="kFZeInZ5YXrBo36wIZL7-68" target="kFZeInZ5YXrBo36wIZL7-46">
          <mxGeometry relative="1" as="geometry">
            <Array as="points">
              <mxPoint x="550" y="445" />
              <mxPoint x="550" y="520" />
              <mxPoint x="140" y="520" />
              <mxPoint x="140" y="325" />
            </Array>
          </mxGeometry>
        </mxCell>
      </root>
    </mxGraphModel>
  </diagram>
</mxfile>
